{"title":"Zodiac (2007) DVD Rip","uid":6334383,"size":839639086,"categoryP":"video","categoryS":"movies","magnet":"?xt=urn:btih:c7c2dbe8c5bfd244eb5ba37d211d4fe64ca60b56&amp;dn=Zodiac+%282007%29+DVD+Rip&amp;tr=udp%3A%2F%2Ftracker.openbittorrent.com%3A80&amp;tr=udp%3A%2F%2Fopen.demonii.com%3A1337&amp;tr=udp%3A%2F%2Ftracker.coppersurfer.tk%3A6969&amp;tr=udp%3A%2F%2Fexodus.desync.com%3A6969","seeders":2,"leechers":0,"uploader":"RetroidPrime91","files":2,"time":1303409728,"description":"A San Francisco cartoonist becomes an amateur detective obsessed with tracking down the Zodiac killer.\n\n\nFormat                           : AVI\nFormat/Info                      : Audio Video Interleave\nFile size                        : 801 MiB\nDuration                         : 2h 37mn\nOverall bit rate                 : 710 Kbps\nWriting application              : VirtualDubMod 1.5.4.1 (build 2178/release)\nWriting library                  : VirtualDubMod build 2178/release\n\nVideo\nID                               : 0\nFormat                           : MPEG-4 Visual\nFormat profile                   : Advanced Simple@L5\nFormat settings, BVOP            : Yes\nFormat settings, QPel            : No\nFormat settings, GMC             : No warppoints\nFormat settings, Matrix          : Custom\nCodec ID                         : XVID\nCodec ID/Hint                    : XviD\nDuration                         : 2h 37mn\nBit rate                         : 575 Kbps\nWidth                            : 576 pixels\nHeight                           : 432 pixels\nDisplay aspect ratio             : 4:3\nFrame rate                       : 23.976 fps\nColor space                      : YUV\nChroma subsampling               : 4:2:0\nBit depth                        : 8 bits\nScan type                        : Progressive\nCompression mode                 : Lossy\nBits/(Pixel*Frame)               : 0.096\nStream size                      : 649 MiB (81%)\nWriting library                  : XviD 1.2.1 (UTC 2008-12-04)\n\nAudio\nID                               : 1\nFormat                           : MPEG Audio\nFormat version                   : Version 1\nFormat profile                   : Layer 3\nMode                             : Joint stereo\nMode extension                   : MS Stereo\nCodec ID                         : 55\nCodec ID/Hint                    : MP3\nDuration                         : 2h 37mn\nBit rate mode                    : Constant\nBit rate                         : 128 Kbps\nChannel(s)                       : 2 channels\nSampling rate                    : 48.0 KHz\nCompression mode                 : Lossy\nStream size                      : 144 MiB (18%)\nAlignment                        : Aligned on interleaves\nInterleave, duration             : 83 ms (2.00 video frames)\nInterleave, preload duration     : 504 ms\nWriting library                  : LAME3.98.2\nLanguage                         : English\n\n\nPlease seed &amp; thank you for downloading","torrent":{"xt":"urn:btih:c7c2dbe8c5bfd244eb5ba37d211d4fe64ca60b56","amp;dn":"Zodiac+%282007%29+DVD+Rip","amp;tr":["udp%3A%2F%2Ftracker.openbittorrent.com%3A80","udp%3A%2F%2Fopen.demonii.com%3A1337","udp%3A%2F%2Ftracker.coppersurfer.tk%3A6969","udp%3A%2F%2Fexodus.desync.com%3A6969"],"infoHash":"c7c2dbe8c5bfd244eb5ba37d211d4fe64ca60b56","infoHashBuffer":{"type":"Buffer","data":[199,194,219,232,197,191,210,68,235,91,163,125,33,29,79,230,76,166,11,86]},"announce":[],"urlList":[]}}